<?xml version="1.0" encoding="utf-8"?>
<!-- Generator: Adobe Illustrator 25.2.1, SVG Export Plug-In . SVG Version: 6.00 Build 0)  -->
<svg version="1.1" id="Capa_1" xmlns="http://www.w3.org/2000/svg" xmlns:xlink="http://www.w3.org/1999/xlink" x="0px" y="0px"
	 viewBox="0 0 1000 400" style="enable-background:new 0 0 1000 400;" xml:space="preserve">
<style type="text/css">
	.st0{fill:#FFFFFF;}
	.st1{fill:#93DF82;}
</style>
<g>
	<g>
		<path class="st0" d="M373.35,283.82l32.27-182.75h60.93l-24.73,140.11h67.62l-7.62,42.64H373.35z"/>
		<path class="st0" d="M517.42,283.82l23.27-131.58h56.91l-23.27,131.58H517.42z M543.33,137.32l6.42-36.24h56.91l-6.42,36.24
			H543.33z"/>
		<path class="st0" d="M603.3,283.82l15.84-91.37c3.05-18.27,4.57-31.68,4.57-40.2h54.52c0.4,4.67,0.2,11.57-0.61,20.71
			c11.17-17.87,27.61-25.99,49.34-24.37L716,209.5c-5.28-2.84-10.66-4.26-16.14-4.26c-8.73,0-15.64,2.28-20.71,6.85
			c-5.08,4.57-8.53,12.44-10.36,23.61l-8.53,48.12H603.3z"/>
		<path class="st0" d="M892.65,152.24l-15.84,91.37c-3.05,18.27-4.57,31.68-4.57,40.2h-51.47c-0.41-4.26-0.41-10.05,0-17.36
			c-8.94,14.01-23.15,21.02-42.64,21.02c-17.87,0-31.32-7.01-40.36-21.02c-9.04-14.01-11.83-30.76-8.38-50.25
			c3.66-19.9,12.23-36.14,25.74-48.73c13.5-12.59,30.2-18.88,50.1-18.88c5.28,0,11.47,1.17,18.58,3.5
			c7.11,2.34,12.79,5.74,17.06,10.2l9.44-10.05H892.65z M800.37,249.1c12.99,0,21.32-10.36,24.97-31.07
			c1.62-9.54,1.22-17.1-1.22-22.69c-2.44-5.58-6.91-8.38-13.4-8.38c-13,0-21.32,10.36-24.98,31.07c-1.63,9.55-1.22,17.11,1.22,22.69
			C789.4,246.31,793.86,249.1,800.37,249.1z"/>
	</g>
</g>
<g>
	<path class="st0" d="M404.98,305.07l-1.1,7.18c-2.98-2.98-6.35-4.47-10.11-4.47c-3.66,0-6.79,1.37-9.38,4.1
		c-2.59,2.74-4.25,6.57-4.98,11.5c-0.73,5.18-0.23,9.2,1.5,12.05c1.73,2.86,4.33,4.29,7.8,4.29c1.81,0,3.32-0.37,4.54-1.1l1.69-9.6
		h-5.2l1.03-5.86h12.6l-3.44,19.34c-1.42,0.83-2.41,1.39-2.97,1.69c-0.56,0.29-1.77,0.7-3.63,1.21c-1.86,0.51-3.81,0.77-5.86,0.77
		c-5.62,0-9.92-2.1-12.9-6.3c-2.98-4.2-4.01-9.77-3.08-16.71c0.93-6.94,3.42-12.37,7.47-16.3c4.05-3.93,8.99-5.9,14.8-5.9
		c2.15,0,4.25,0.37,6.3,1.1S403.76,303.79,404.98,305.07z"/>
	<path class="st0" d="M436.64,301.55l-1.1,6.3h-14.22l-2.08,11.72h11.29l-1.1,6.23h-11.3l-2.39,13.41h14.22l-1.17,6.3h-22.04
		l7.81-43.97H436.64z"/>
	<path class="st0" d="M463.09,304.55l-2.42,5.86c-2.78-2.2-5.59-3.3-8.43-3.3c-1.56,0-2.85,0.48-3.85,1.43
		c-1,0.95-1.58,2.16-1.72,3.63c-0.15,1.42,0.12,2.74,0.81,3.96s1.88,2.15,3.59,2.78c7.57,2.74,10.94,7.4,10.11,13.99
		c-0.59,4.64-2.3,8.02-5.13,10.15c-2.83,2.12-6.2,3.19-10.11,3.19c-4.98,0-8.99-1.66-12.02-4.98l2.64-6.38
		c2.88,3.37,6.13,5.06,9.75,5.06c1.81,0,3.36-0.51,4.65-1.54c1.29-1.03,2.04-2.54,2.24-4.54c0.39-3.52-1.66-6.13-6.16-7.84
		c-6.3-2.44-9.06-6.79-8.28-13.04c0.49-3.81,1.97-6.79,4.43-8.94c2.47-2.15,5.61-3.22,9.42-3.22
		C456.71,300.81,460.21,302.06,463.09,304.55z"/>
	<path class="st0" d="M495.92,301.55l-1.03,6.3h-10.7l-6.69,37.66h-7.89l6.69-37.66h-10.63l1.1-6.3H495.92z"/>
	<path class="st0" d="M507.94,301.55l-7.79,43.97h-7.89l7.79-43.97H507.94z"/>
	<path class="st0" d="M545.89,324.12c-1.03,6.74-3.48,12.13-7.36,16.16c-3.88,4.03-8.46,6.04-13.74,6.04
		c-5.42,0-9.56-2.17-12.42-6.52c-2.86-4.35-3.75-9.97-2.67-16.85c1.03-6.74,3.48-12.13,7.36-16.16c3.88-4.03,8.46-6.05,13.74-6.05
		c5.37,0,9.49,2.17,12.35,6.52C546,311.61,546.92,317.23,545.89,324.12z M537.61,323.75c0.78-5.37,0.5-9.48-0.84-12.31
		c-1.34-2.83-3.55-4.25-6.63-4.25c-2.93,0-5.5,1.36-7.69,4.07c-2.2,2.71-3.69,6.73-4.47,12.05c-0.78,5.37-0.5,9.48,0.84,12.31
		c1.34,2.83,3.55,4.25,6.63,4.25c2.93,0,5.5-1.36,7.69-4.07C535.34,333.09,536.83,329.08,537.61,323.75z M539.3,292.46l-11.06,5.28
		l-1.17-1.83l9.38-7.84L539.3,292.46z"/>
	<path class="st0" d="M585.05,301.55l-7.8,43.97h-5.86l-11.5-28.94l-5.1,28.94h-6.99l7.75-43.97h5.78l11.56,29.08l5.17-29.08H585.05
		z"/>
</g>
<g>
	<path class="st1" d="M175.24,299.04c0-51.06,0-101.74,0-152.78c-5.18,0-10,0-15.38,0c0,49.63,0,99.05,0,149.75
		c-5.27-2.65-9.76-4.53-13.78-7.14c-1.18-0.77-1.43-3.58-1.44-5.45c-0.08-43.39-0.06-86.78-0.06-130.17c0-2.2,0-4.4,0-7.23
		c-5.14,0-9.96,0-15.04,0c0-5.33,0-10.03,0-15.1c35.57,0,71,0,106.71,0c0,4.84,0,9.54,0,14.9c-4.92,0-9.74,0-15.04,0
		c0,2.82,0,5,0,7.17c0,42.71-0.15,85.42,0.17,128.13c0.05,6.12-1.78,9.55-7.34,11.42c-2.4,0.81-4.69,1.93-7.83,3.26
		c0-50.11,0-99.64,0-149.53c-5.51,0-10.32,0-15.63,0c0,2.4,0,4.58,0,6.75c0,46.28,0,92.57,0,138.85c0,8.14-0.3,8.47-8.58,8.14
		C179.84,299.92,177.7,299.4,175.24,299.04z"/>
	<path class="st1" d="M257.64,272.61c14.49-26.71,11.53-52.07-3.3-76.95c-1.49-2.5-2.41-5.75-2.42-8.67
		c-0.18-26.53-0.29-53.06,0.01-79.59c0.14-12.2,8.65-21.26,20.11-22.67c10.83-1.33,21.13,5.27,24.55,15.75
		c3.37,10.33-0.55,20.95-10.33,26.75c-2.91,1.73-3.89,3.58-3.86,6.86c0.16,14.62-0.06,29.25,0.18,43.88
		c0.05,3.07,0.89,6.41,2.31,9.12c17.97,34.24,16.08,67.91-2.47,101.22c-0.4,0.72-0.93,1.38-1.72,2.54
		C273,284.77,265.49,278.82,257.64,272.61z"/>
	<path class="st1" d="M107.96,272.76c-7.7,6.1-15.13,11.98-22.9,18.14c-7.15-11.24-11.65-23.2-14.48-35.86
		c-5.32-23.85-0.78-46.15,10.13-67.59c1.54-3.02,2.43-6.7,2.49-10.09c0.27-14.28,0.05-28.56,0.16-42.84
		c0.03-3.32-0.64-5.47-3.89-7.35c-9.93-5.74-13.8-16.82-10.1-27.22C73,89.76,83.19,83.42,93.81,84.75
		c11.09,1.38,19.77,10.09,19.94,21.69c0.4,27.19,0.21,54.4,0.06,81.6c-0.01,2.57-1.02,5.41-2.36,7.66
		C96.63,220.53,93.6,245.9,107.96,272.76z"/>
	<path class="st1" d="M248.78,285.06c7.88,6.24,15.44,12.24,23.01,18.23c-44.2,55.84-131.22,57.73-177.82,0.04
		c7.54-5.98,15.09-11.95,22.96-18.19c17.94,18.89,39.54,29.96,65.72,30.12C208.93,315.43,230.68,304.76,248.78,285.06z"/>
</g>
</svg>
